<?xml version="1.0" encoding="UTF-8"?> <svg xmlns="http://www.w3.org/2000/svg" id="Capa_1" data-name="Capa 1" viewBox="0 0 300 200"><defs><style>.cls-1{fill:#252f3e;}.cls-2{fill:#f90;}</style></defs><path id="Trazado_553" data-name="Trazado 553" class="cls-1" d="M106.6,87a18.08,18.08,0,0,0,.65,5.33,33.13,33.13,0,0,0,1.92,4.3,2.6,2.6,0,0,1,.42,1.38,2.38,2.38,0,0,1-1.14,1.79l-3.77,2.52a2.86,2.86,0,0,1-1.55.53,2.81,2.81,0,0,1-1.8-.84,19,19,0,0,1-2.15-2.81c-.6-1-1.2-2.15-1.86-3.53A22.09,22.09,0,0,1,79.74,104a16.41,16.41,0,0,1-12-4.31,16.88,16.88,0,0,1,1-23.81,21.74,21.74,0,0,1,14.66-4.67,48.06,48.06,0,0,1,6.34.48c2.21.3,4.48.78,6.88,1.32V68.6c0-4.55-1-7.72-2.82-9.57s-5.14-2.76-9.75-2.76a27.12,27.12,0,0,0-6.46.78,48.4,48.4,0,0,0-6.46,2,15.94,15.94,0,0,1-2.09.78,4,4,0,0,1-1,.18c-.84,0-1.26-.6-1.26-1.85V55.25a3.79,3.79,0,0,1,.42-2.09A4.44,4.44,0,0,1,69,51.9a34.86,34.86,0,0,1,7.53-2.69,36.76,36.76,0,0,1,9.34-1.14c7.11,0,12.32,1.62,15.67,4.85s5,8.14,5,14.72V87Zm-24.29,9.1A19.56,19.56,0,0,0,88.47,95a13.31,13.31,0,0,0,5.68-3.83,9.46,9.46,0,0,0,2-3.83,21.18,21.18,0,0,0,.6-5.2V79.66a48.8,48.8,0,0,0-5.5-1,44.07,44.07,0,0,0-5.62-.36,13.85,13.85,0,0,0-8.92,2.39,8.55,8.55,0,0,0,5.57,15.44Zm48,6.46a3.36,3.36,0,0,1-2.28-.6,4.87,4.87,0,0,1-1.25-2.33L112.76,53.4a10.21,10.21,0,0,1-.53-2.39,1.31,1.31,0,0,1,1.11-1.49,1.69,1.69,0,0,1,.32,0h5.86a3.33,3.33,0,0,1,2.33.6,4.86,4.86,0,0,1,1.2,2.34l10,39.6,9.33-39.6a4.18,4.18,0,0,1,1.14-2.34,4.09,4.09,0,0,1,2.39-.6h4.79a3.67,3.67,0,0,1,2.39.6,4,4,0,0,1,1.14,2.34l9.45,40.08,10.35-40.08a5.09,5.09,0,0,1,1.2-2.34,3.9,3.9,0,0,1,2.33-.6h5.56a1.35,1.35,0,0,1,1.5,1.14,2.16,2.16,0,0,1,0,.36,7.87,7.87,0,0,1-.12,1,7.67,7.67,0,0,1-.42,1.49L169.71,99.71a4.59,4.59,0,0,1-1.25,2.33,3.89,3.89,0,0,1-2.28.6H161a3.61,3.61,0,0,1-2.39-.6,4.19,4.19,0,0,1-1.14-2.39l-9.27-38.59L139,99.59a4.66,4.66,0,0,1-1.13,2.39,3.7,3.7,0,0,1-2.4.6Zm76.87,1.61a39.69,39.69,0,0,1-9.21-1.07,27,27,0,0,1-6.88-2.4,4.29,4.29,0,0,1-1.86-1.67,4.21,4.21,0,0,1-.35-1.68V94.32c0-1.25.48-1.85,1.37-1.85a3.31,3.31,0,0,1,1.08.18c.36.11.9.35,1.5.59a33,33,0,0,0,6.58,2.1,36.2,36.2,0,0,0,7.12.71,16.11,16.11,0,0,0,8.73-2,6.43,6.43,0,0,0,3.11-5.67,5.85,5.85,0,0,0-1.61-4.19,14.9,14.9,0,0,0-6-3.11l-8.67-2.7a18.2,18.2,0,0,1-9.57-6.1,14.19,14.19,0,0,1-3-8.67A13.24,13.24,0,0,1,191.14,57a15.39,15.39,0,0,1,4.31-4.91A19,19,0,0,1,201.67,49a26.33,26.33,0,0,1,7.54-1,33.58,33.58,0,0,1,4,.24c1.37.18,2.63.42,3.88.66s2.34.6,3.41,1A12.76,12.76,0,0,1,223,50.89a5.06,5.06,0,0,1,1.79,1.49,3.17,3.17,0,0,1,.53,2v2.81c0,1.25-.48,1.91-1.37,1.91a6.21,6.21,0,0,1-2.27-.71A27.39,27.39,0,0,0,210.22,56a15.47,15.47,0,0,0-8,1.67A5.8,5.8,0,0,0,199.45,63a5.66,5.66,0,0,0,1.79,4.24,17.88,17.88,0,0,0,6.58,3.29l8.5,2.7A18.18,18.18,0,0,1,225.59,79a13.44,13.44,0,0,1,2.75,8.37,15.28,15.28,0,0,1-1.55,6.94,16,16,0,0,1-4.37,5.27,19.44,19.44,0,0,1-6.64,3.35,28.52,28.52,0,0,1-8.56,1.25Z"></path><path id="Trazado_554" data-name="Trazado 554" class="cls-2" d="M218.52,133.27c-19.68,14.53-48.27,22.25-72.86,22.25a131.83,131.83,0,0,1-89-33.92c-1.85-1.68-.17-3.95,2-2.64a176.66,176.66,0,0,0,156.91,9.76C218.94,127.22,221.75,130.87,218.52,133.27Zm8.2-9.34c-2.52-3.22-16.63-1.55-23-.77-1.91.24-2.21-1.44-.48-2.69,11.25-7.9,29.73-5.63,31.89-3s-.6,21.18-11.13,30c-1.61,1.38-3.17.66-2.45-1.13,2.4-5.92,7.72-19.27,5.21-22.44Z"></path></svg> 