<?xml version="1.0" encoding="UTF-8"?> <!-- Generator: Adobe Illustrator 26.3.1, SVG Export Plug-In . SVG Version: 6.00 Build 0) --> <svg xmlns="http://www.w3.org/2000/svg" xmlns:xlink="http://www.w3.org/1999/xlink" version="1.1" id="Capa_1" x="0px" y="0px" viewBox="0 0 300 200" style="enable-background:new 0 0 300 200;" xml:space="preserve"> <style type="text/css"> .st0{fill-rule:evenodd;clip-rule:evenodd;fill:#106072;} </style> <g> <path class="st0" d="M92.5,105.3H95c-1,4.4-4.7,7.4-9.8,7.4c-5.9,0-10.7-4.4-10.7-10.3c0-5.8,4.8-10.2,10.7-10.2c5,0,8.8,3,9.8,7.4 h-2.5c-0.8-3.2-3.6-5.3-7.3-5.3c-4.7,0-8.3,3.5-8.3,8.1c0,4.6,3.6,8.1,8.3,8.1C88.9,110.6,91.6,108.5,92.5,105.3 M120.6,102.5 c0,5.7-4.6,10.2-10.2,10.2c-5.7,0-10.2-4.5-10.2-10.2c0-5.7,4.6-10.2,10.2-10.2C116,92.2,120.6,96.8,120.6,102.5 M118.3,102.5 c0-4.5-3.5-8.1-7.9-8.1c-4.5,0-7.9,3.6-7.9,8.1c0,4.5,3.5,8.1,7.9,8.1C114.8,110.6,118.3,107,118.3,102.5 M144.9,92.2v20.5H143 l-12.5-16.2v16.2h-2.3V92.2h1.8l12.5,16.4V92.2H144.9z M156.3,94.4v7.5h10.4v2.2h-10.4v8.6h-2.4V92.2H168v2.2H156.3z M189.8,110.5 v2.2h-14.1V92.2h2.5v18.3H189.8z M211.5,103.8c0,5.4-3.6,9-9,9s-9-3.6-9-9V92.2h2.4v11.5c0,3.9,2.6,6.8,6.5,6.8 c3.9,0,6.5-2.8,6.5-6.8V92.2h2.4V103.8z M222.8,94.4v7h10.6v2.2h-10.6v6.9h11.8v2.2h-14.1V92.2h14.1v2.2H222.8z M257.7,92.2v20.5 h-1.9l-12.5-16.2v16.2H241V92.2h1.8l12.5,16.4V92.2H257.7z M282,94.4h-7.2v18.3h-2.3V94.4h-7.2v-2.2H282V94.4z M46.8,103.7 c1.1-0.1,2.2-0.1,3.4-0.2v-0.9c-1.1-0.1-2.2-0.1-3.4-0.2l-3.4-0.1c-2-0.1-3.9-0.1-5.9-0.1c0-2,0-3.9-0.1-5.9L37.3,93 c-0.1-1.1-0.1-2.2-0.2-3.4h-1c-0.1,1.1-0.1,2.2-0.2,3.4l-0.1,3.4c0,0.9,0,1.9,0,2.8c-0.4-0.9-0.7-1.7-1.1-2.6l-1.4-3.1 c-0.5-1-0.9-2-1.4-3l-0.9,0.4c0.4,1.1,0.8,2.1,1.1,3.2l1.2,3.1c0.3,0.9,0.7,1.7,1,2.6c-0.7-0.6-1.3-1.3-2-1.9L30,95.5 c-0.8-0.8-1.6-1.5-2.5-2.3l-0.7,0.7c0.7,0.8,1.5,1.7,2.3,2.5l2.3,2.4c0.6,0.7,1.3,1.3,1.9,2c-0.9-0.3-1.7-0.7-2.6-1l-3.1-1.2 c-1.1-0.4-2.1-0.8-3.2-1.1l-0.4,0.9c1,0.5,2,1,3,1.4l3.1,1.4c0.8,0.4,1.7,0.7,2.5,1.1c-0.9,0-1.9,0-2.8,0l-3.4,0.1 c-1.1,0.1-2.2,0.1-3.4,0.2v1c1.1,0.1,2.2,0.1,3.4,0.2l3.4,0.1c2,0.1,3.9,0.1,5.9,0.1c0,2,0,3.9,0.1,5.9l0.1,3.4 c0.1,1.1,0.1,2.2,0.2,3.4h0.9c0.1-1.1,0.1-2.2,0.2-3.4l0.1-3.4c0-0.9,0-1.9,0.1-2.8c0.4,0.9,0.8,1.7,1.1,2.6l1.4,3.1 c0.5,1,0.9,2,1.5,3l0.8-0.3c-0.4-1.1-0.7-2.1-1.1-3.2l-1.2-3.1c-0.3-0.9-0.7-1.8-1-2.7c0.7,0.7,1.4,1.3,2.1,2l2.5,2.3 c0.8,0.7,1.7,1.5,2.5,2.3l0.6-0.6c-0.7-0.9-1.5-1.7-2.3-2.5l-2.3-2.5c-0.7-0.7-1.3-1.4-2-2.1c0.9,0.4,1.8,0.7,2.7,1l3.1,1.2 c1.1,0.4,2.1,0.8,3.2,1.1l0.3-0.8c-1-0.5-2-1-3-1.5l-3.1-1.4c-0.9-0.4-1.7-0.8-2.6-1.1c0.9,0,1.9,0,2.8-0.1 C43.4,103.8,46.8,103.7,46.8,103.7z"></path> <path class="st0" d="M37.3,124.3c-12,0-21.8-9.8-21.8-21.8s9.8-21.8,21.8-21.8s21.8,9.8,21.8,21.8S49.3,124.3,37.3,124.3 M37.3,82.7c-10.9,0-19.7,8.9-19.7,19.7s8.9,19.7,19.7,19.7S57,113.4,57,102.5S48.2,82.7,37.3,82.7"></path> </g> </svg> 