<?xml version="1.0" encoding="UTF-8"?> <!-- Generator: Adobe Illustrator 24.2.1, SVG Export Plug-In . SVG Version: 6.00 Build 0) --> <svg xmlns="http://www.w3.org/2000/svg" xmlns:xlink="http://www.w3.org/1999/xlink" version="1.1" id="Capa_1" x="0px" y="0px" viewBox="0 0 300 200" style="enable-background:new 0 0 300 200;" xml:space="preserve"> <style type="text/css"> .st0{fill:#0091E2;} </style> <path class="st0" d="M142.6,81.4c-1.4,0-2.5,1-2.5,2.4c0,0,0,0.1,0,0.2v12.2c-5.9-4.7-14.5-3.8-19.2,2.1c-1.9,2.4-3,5.4-3,8.6 c-0.1,7.5,5.9,13.7,13.4,13.9c7.5,0.1,13.7-5.9,13.9-13.4c0-0.2,0-0.3,0-0.5V83.9c0-0.7-0.3-1.3-0.7-1.8 C143.9,81.6,143.3,81.4,142.6,81.4 M139.4,110c-0.9,2.1-2.5,3.7-4.5,4.6c-2.1,0.9-4.5,0.9-6.7,0c-2.1-0.9-3.6-2.5-4.5-4.5 c-0.9-2.1-0.9-4.5,0-6.6c0.9-2.1,2.5-3.7,4.5-4.5c2.1-0.9,4.5-0.9,6.7,0c2.1,0.9,3.7,2.5,4.5,4.6C140.3,105.5,140.3,107.9,139.4,110 "></path> <path class="st0" d="M171.1,97.1c-5.3-5.3-14-5.3-19.3,0c-2.6,2.6-4,6-4,9.6c-0.1,7.5,5.9,13.7,13.4,13.9 c7.5,0.1,13.7-5.9,13.9-13.4c0-0.2,0-0.3,0-0.5c0-1.8-0.3-3.6-1-5.2C173.4,99.8,172.4,98.3,171.1,97.1 M169.3,110 c-0.4,1-1.1,1.9-1.8,2.7c-0.8,0.8-1.7,1.4-2.7,1.8c-2.1,0.9-4.5,0.9-6.7,0c-2.1-0.9-3.7-2.5-4.5-4.5c-0.9-2.1-0.9-4.5,0-6.6 c0.9-2.1,2.5-3.6,4.5-4.5c2.1-0.9,4.5-0.9,6.7,0c1,0.4,1.9,1.1,2.7,1.8c0.8,0.8,1.4,1.7,1.8,2.7C170.2,105.5,170.2,107.9,169.3,110"></path> <path class="st0" d="M227.5,95.6c0-0.3-0.1-0.7-0.2-1c-0.1-0.3-0.3-0.6-0.6-0.8c-0.2-0.2-0.5-0.4-0.8-0.6c-0.3-0.1-0.6-0.2-1-0.2 c-0.5,0-0.9,0.1-1.4,0.4l-14.6,9.5V83.9c0-0.7-0.3-1.3-0.7-1.8c-0.5-0.5-1.1-0.8-1.8-0.8c-1.4,0-2.5,1.1-2.6,2.5c0,0,0,0,0,0v33.8 c0,0.7,0.3,1.3,0.7,1.8c0.5,0.5,1.1,0.8,1.8,0.8s1.3-0.3,1.8-0.8c0.5-0.5,0.8-1.1,0.7-1.8V109l3-1.9l11.3,12.6 c0.5,0.4,1.1,0.7,1.7,0.6c0.3,0,0.7,0,1-0.2c0.3-0.1,0.6-0.3,0.8-0.6c0.2-0.3,0.4-0.5,0.6-0.8c0.1-0.3,0.2-0.6,0.2-1 c0-0.6-0.3-1.3-0.7-1.8l-10.4-11.8l10.2-6.6C227.2,97.2,227.5,96.4,227.5,95.6"></path> <path class="st0" d="M185.2,100.6c0.8-0.8,1.7-1.4,2.7-1.8c1.1-0.4,2.2-0.7,3.3-0.7c1,0,2,0.2,3,0.5c0.9,0.4,1.8,0.9,2.6,1.6 c0.5,0.4,1.1,0.6,1.7,0.6c0.7,0,1.4-0.2,1.8-0.7c0.5-0.5,0.7-1.2,0.7-1.8c0-0.7-0.3-1.5-0.9-1.9c-2.4-2.2-5.6-3.4-8.9-3.3 c-7.5,0-13.7,6.1-13.7,13.7s6.1,13.6,13.6,13.7c3.3,0,6.5-1.2,8.9-3.3c0.5-0.5,0.8-1.2,0.8-1.9c0-1.4-1-2.5-2.4-2.5c0,0-0.1,0-0.2,0 c-0.6,0-1.2,0.2-1.6,0.5c-0.8,0.7-1.6,1.2-2.6,1.6c-0.9,0.3-2,0.5-3,0.5c-1.2,0-2.3-0.2-3.3-0.7c-1-0.4-1.9-1.1-2.7-1.8 C181.9,109.3,181.9,103.9,185.2,100.6C185.2,100.7,185.2,100.7,185.2,100.6"></path> <path class="st0" d="M278,94.8c-0.5-0.5-1.1-0.8-1.7-1c-0.7-0.3-1.5-0.4-2.3-0.5s-1.5-0.1-2.3-0.1c-1.5,0-3.1,0.3-4.6,0.8 c-1.5,0.5-2.8,1.3-4,2.2v-0.5c0-1.4-1.2-2.5-2.7-2.4c-1.3,0-2.4,1.1-2.4,2.4v22.2c0,1.4,1.2,2.5,2.7,2.4c1.3,0,2.4-1.1,2.4-2.4 v-11.1c0-1.2,0.2-2.3,0.7-3.3c0.4-1,1-1.9,1.8-2.7c0.8-0.8,1.7-1.4,2.7-1.8c1.1-0.4,2.2-0.7,3.3-0.7s2.3,0.2,3.3,0.6 c0.3,0.2,0.7,0.3,1.1,0.3c0.3,0,0.7,0,1-0.2c0.3-0.1,0.6-0.3,0.8-0.6c0.2-0.2,0.4-0.5,0.6-0.8c0.1-0.3,0.2-0.6,0.2-1 C278.8,95.8,278.5,95.2,278,94.8"></path> <path class="st0" d="M254.4,101.5c-2.2-5.1-7.2-8.3-12.6-8.4c-7.5,0-13.6,6.1-13.7,13.6l0,0c0,7.5,6.1,13.7,13.7,13.7 c3.3,0,6.4-1.2,8.9-3.3c0,0,0.1-0.1,0.1-0.1c0.2-0.2,0.4-0.4,0.6-0.6c0.8-1.2,0.5-2.8-0.6-3.6c-1-0.6-2.3-0.5-3.1,0.3 c-0.1,0.1-0.3,0.3-0.3,0.3l0,0c-0.7,0.6-1.5,1.1-2.4,1.4c-0.9,0.3-1.9,0.5-3,0.5c-0.9,0-1.8-0.1-2.7-0.4c-0.9-0.3-1.7-0.7-2.4-1.2 c-0.7-0.5-1.4-1.2-1.9-1.9c-0.6-0.7-0.9-1.6-1.2-2.4h19.3c0.7,0,1.3-0.3,1.8-0.7c0.5-0.5,0.8-1.1,0.7-1.8 C255.4,105,255,103.2,254.4,101.5 M233.5,104.2c0.3-0.9,0.6-1.7,1.2-2.4c0.5-0.7,1.2-1.4,1.9-1.9c0.7-0.5,1.5-0.9,2.4-1.2 c0.9-0.3,1.8-0.4,2.7-0.4c0.9,0,1.8,0.1,2.7,0.4c1.7,0.6,3.2,1.7,4.3,3.1c0.6,0.7,0.9,1.6,1.2,2.4H233.5z"></path> <path class="st0" d="M269.3,116.7c-1,0-1.8,0.8-1.8,1.8c0,1,0.8,1.8,1.8,1.8s1.8-0.8,1.8-1.8C271.1,117.4,270.3,116.7,269.3,116.7 L269.3,116.7 M269.3,119.8c-0.8,0-1.4-0.6-1.5-1.3c0-0.8,0.6-1.4,1.3-1.5c0.8,0,1.4,0.6,1.5,1.3c0,0,0,0,0,0.1 C270.7,119.2,270.1,119.8,269.3,119.8C269.4,119.8,269.4,119.8,269.3,119.8"></path> <path class="st0" d="M269.8,118.5L269.8,118.5c0.2,0,0.3-0.2,0.3-0.4c0-0.2,0-0.3-0.2-0.4c-0.2-0.1-0.4-0.1-0.6-0.1 c-0.2,0-0.5,0-0.7,0v1.8h0.4v-0.7h0.2c0.2,0,0.3,0.1,0.4,0.3c0,0.1,0.1,0.3,0.1,0.4h0.4c-0.1-0.1-0.1-0.3-0.1-0.4 C270.1,118.7,269.9,118.5,269.8,118.5 M269.3,118.3H269v-0.5c0.1,0,0.2,0,0.2,0c0.3,0,0.4,0.1,0.4,0.3 C269.7,118.2,269.5,118.4,269.3,118.3"></path> <path class="st0" d="M113.2,87.1c-0.3-0.2-2.6-2-7.5-2c-1.3,0-2.6,0.1-3.9,0.3c-0.9-6.6-6.4-9.7-6.6-9.9l-1.3-0.8L93,76.1 c-1.1,1.7-1.9,3.6-2.4,5.5c-0.9,3.7-0.3,7.2,1.5,10.2c-2.3,1.3-6,1.6-6.7,1.6H24.7c-1.6,0-2.9,1.3-2.9,2.9 c-0.1,5.3,0.8,10.6,2.7,15.6c2.1,5.5,5.2,9.5,9.2,12c4.5,2.8,11.9,4.4,20.3,4.4c3.8,0,7.5-0.3,11.3-1c5.2-0.9,10.1-2.7,14.7-5.4 c3.8-2.2,7.2-5,10-8.2c4.8-5.4,7.7-11.5,9.8-16.9c0.3,0,0.6,0,0.9,0c5.3,0,8.5-2.1,10.3-3.9c1.2-1.1,2.1-2.5,2.7-4l0.4-1.1 L113.2,87.1z"></path> <path class="st0" d="M30.3,91.6h8.1c0.4,0,0.7-0.3,0.7-0.7l0,0v-7.3c0-0.4-0.3-0.7-0.7-0.7l0,0h-8.1c-0.4,0-0.7,0.3-0.7,0.7l0,0v7.3 C29.6,91.3,29.9,91.6,30.3,91.6L30.3,91.6"></path> <path class="st0" d="M41.5,91.6h8.1c0.4,0,0.7-0.3,0.7-0.7l0,0v-7.3c0-0.4-0.3-0.7-0.7-0.7l0,0h-8.1c-0.4,0-0.7,0.3-0.7,0.7v7.3 C40.9,91.3,41.2,91.6,41.5,91.6"></path> <path class="st0" d="M53,91.6h8.1c0.4,0,0.7-0.3,0.7-0.7l0,0v-7.3c0-0.4-0.3-0.7-0.7-0.7l0,0H53c-0.4,0-0.7,0.3-0.7,0.7l0,0v7.3 C52.3,91.3,52.6,91.6,53,91.6L53,91.6"></path> <path class="st0" d="M64.2,91.6h8.1c0.4,0,0.7-0.3,0.7-0.7v-7.3c0-0.4-0.3-0.7-0.7-0.7l0,0h-8.1c-0.4,0-0.7,0.3-0.7,0.7l0,0v7.3 C63.5,91.3,63.9,91.6,64.2,91.6L64.2,91.6"></path> <path class="st0" d="M41.5,81.2h8.1c0.4,0,0.7-0.3,0.7-0.7v-7.3c0-0.4-0.3-0.7-0.7-0.7l0,0h-8.1c-0.4,0-0.7,0.3-0.7,0.7v7.3 C40.9,80.9,41.2,81.2,41.5,81.2"></path> <path class="st0" d="M53,81.2h8.1c0.4,0,0.7-0.3,0.7-0.7v-7.3c0-0.4-0.3-0.7-0.7-0.7l0,0H53c-0.4,0-0.7,0.3-0.7,0.7l0,0v7.3 C52.3,80.9,52.6,81.2,53,81.2"></path> <path class="st0" d="M64.2,81.2h8.1c0.4,0,0.7-0.3,0.7-0.7v-7.3c0-0.4-0.3-0.7-0.7-0.7h-8.1c-0.4,0-0.7,0.3-0.7,0.7l0,0v7.3 C63.5,80.9,63.9,81.2,64.2,81.2"></path> <path class="st0" d="M64.2,70.8h8.1c0.4,0,0.7-0.3,0.7-0.7v-7.3c0-0.4-0.3-0.7-0.7-0.7h-8.1c-0.4,0-0.7,0.3-0.7,0.7l0,0v7.3 C63.5,70.5,63.9,70.8,64.2,70.8"></path> <path class="st0" d="M75.6,91.6h8.1c0.4,0,0.7-0.3,0.7-0.7v-7.3c0-0.4-0.3-0.7-0.7-0.7l0,0h-8.1c-0.4,0-0.7,0.3-0.7,0.7l0,0v7.3 C74.9,91.3,75.2,91.6,75.6,91.6"></path> </svg> 