<?xml version="1.0" encoding="UTF-8"?> <svg xmlns="http://www.w3.org/2000/svg" id="Capa_1" data-name="Capa 1" viewBox="0 0 300 200"><defs><style>.cls-1{fill:#f25022;}.cls-2{fill:#80ba01;}.cls-3{fill:#777;}.cls-4{fill:#02a4ef;}.cls-5{fill:#ffb902;}</style></defs><g id="Grupo_340" data-name="Grupo 340"><path id="Trazado_535" data-name="Trazado 535" class="cls-1" d="M17.13,67.37h33v33h-33Z"></path><path id="Trazado_536" data-name="Trazado 536" class="cls-2" d="M53.52,67.37h33v33h-33v-33Z"></path><g id="Grupo_338" data-name="Grupo 338"><path id="Trazado_537" data-name="Trazado 537" class="cls-3" d="M260.72,66.52a10.15,10.15,0,0,1,8.14-1c0,1.6,0,3.2,0,4.79a5.33,5.33,0,0,0-4.12-.37,3.27,3.27,0,0,0-1.87,2.61,34.32,34.32,0,0,0-.1,4.18H271c0-1.77,0-3.54,0-5.31,1.85-.52,3.68-1.11,5.53-1.67,0,2.33,0,4.66,0,7,1.84,0,3.68,0,5.53,0v4.54c-1.86-.08-3.71,0-5.56,0,0,2.61,0,5.22,0,7.83,0,1.45-.07,2.9.1,4.34a2.77,2.77,0,0,0,1.2,2.22,4.14,4.14,0,0,0,4.25-.4v4.59a11,11,0,0,1-5.11.78,6.21,6.21,0,0,1-4.4-2A8.35,8.35,0,0,1,271,93.29c0-4,0-8,0-12h-8.18v18.85H257.2V81.28c-1.29,0-2.59,0-3.89,0,0-1.49,0-3,0-4.48,1.29,0,2.59,0,3.88,0,.09-2-.21-4,.38-6a7.61,7.61,0,0,1,3.16-4.3Z"></path><path id="Trazado_538" data-name="Trazado 538" class="cls-3" d="M141.08,66.84a3.42,3.42,0,0,1,3.09,1.1,3.18,3.18,0,0,1,.39,3.63,3.49,3.49,0,0,1-3.72,1.56,3.17,3.17,0,0,1-2.6-3.12,3.24,3.24,0,0,1,2.84-3.17Z"></path><path id="Trazado_539" data-name="Trazado 539" class="cls-3" d="M98.25,67.53h8.13q3.8,9.63,7.61,19.26c.65,1.61,1.25,3.23,1.93,4.82,3.25-8,6.55-16,9.79-24.06,2.6,0,5.21,0,7.82,0q0,16.29,0,32.58c-1.89,0-3.76,0-5.64,0,0-8,0-16,0-24,0-.36,0-.72,0-1.08a3.29,3.29,0,0,0-.29.52c-3.23,8.2-6.52,16.38-9.73,24.6-1.34,0-2.68,0-4,0-3.33-8.2-6.62-16.43-9.94-24.64a4.76,4.76,0,0,0-.28-.49c-.06,3.51,0,7,0,10.54v14.58H98.26V67.53Z"></path><path id="Trazado_540" data-name="Trazado 540" class="cls-3" d="M156.46,76.75a15.3,15.3,0,0,1,8.3,0,6.93,6.93,0,0,1,1.59.66c0,1.79,0,3.57,0,5.35a8.88,8.88,0,0,0-6.38-2,6.51,6.51,0,0,0-4.64,2.58,9,9,0,0,0-1.49,6.47,6.59,6.59,0,0,0,7.49,6.19,10.65,10.65,0,0,0,5-2c0,1.68,0,3.37,0,5.06a13.58,13.58,0,0,1-7.63,1.58,11.28,11.28,0,0,1-7.28-3,11.54,11.54,0,0,1-3.38-7.81,14.16,14.16,0,0,1,2.2-8.67,11.2,11.2,0,0,1,6.2-4.38Z"></path><path id="Trazado_541" data-name="Trazado 541" class="cls-3" d="M217.5,76.39a14.68,14.68,0,0,1,7.73.81v5.13a9.89,9.89,0,0,0-5.87-1.73,3,3,0,0,0-2.67,1.48,2.44,2.44,0,0,0,.81,2.86c1.59,1.06,3.48,1.51,5.12,2.46a7.34,7.34,0,0,1,3.2,3,6.81,6.81,0,0,1-1.45,7.86,10.69,10.69,0,0,1-7.78,2.36,16.33,16.33,0,0,1-5.68-1.3c0-1.8,0-3.6,0-5.4A12.24,12.24,0,0,0,216,96.15a6.51,6.51,0,0,0,3.85-.36,2.23,2.23,0,0,0,.74-3.06.41.41,0,0,0-.07-.11,6.72,6.72,0,0,0-2.44-1.6,23.1,23.1,0,0,1-4.82-2.47,5.8,5.8,0,0,1-2.09-3.17,7.07,7.07,0,0,1,.78-5.57,8.3,8.3,0,0,1,5.56-3.42Z"></path><path id="Trazado_542" data-name="Trazado 542" class="cls-3" d="M178.85,77.13a6.27,6.27,0,0,1,5.18-.44v5.59a6,6,0,0,0-3.77-.89,4.65,4.65,0,0,0-3.5,2.8A10.25,10.25,0,0,0,176,89v11.16h-5.51q0-11.67,0-23.34c1.84,0,3.67,0,5.51,0v4a7.18,7.18,0,0,1,2.89-3.66Z"></path><path id="Trazado_543" data-name="Trazado 543" class="cls-3" d="M138.75,76.78c1.86,0,3.71,0,5.57,0,0,7.78,0,15.56,0,23.33h-5.55V76.78Z"></path><path id="Trazado_544" data-name="Trazado 544" class="cls-3" d="M207.2,82.22a9.9,9.9,0,0,0-4.88-4.94,14.89,14.89,0,0,0-8-.94A11.14,11.14,0,0,0,187,80.27a12.46,12.46,0,0,0-2.58,7.13,13.39,13.39,0,0,0,2.05,8.72,10.56,10.56,0,0,0,6.45,4.21,16.06,16.06,0,0,0,6.55,0,10.78,10.78,0,0,0,6.41-4,12.33,12.33,0,0,0,2.46-6.8A15.31,15.31,0,0,0,207.2,82.22Zm-5.4,10.72a5.08,5.08,0,0,1-2.74,2.69,7.49,7.49,0,0,1-4.56.2,5.55,5.55,0,0,1-3.5-2.89,10.74,10.74,0,0,1-.85-5.84,7.39,7.39,0,0,1,2.16-4.87A5.87,5.87,0,0,1,196,80.77a6.05,6.05,0,0,1,4.68,1.59,7.56,7.56,0,0,1,1.93,4.87,12.35,12.35,0,0,1-.79,5.71Z"></path><path id="Trazado_545" data-name="Trazado 545" class="cls-3" d="M252,82.9a10,10,0,0,0-4.8-5.44,14.49,14.49,0,0,0-8.29-1.12A11.5,11.5,0,0,0,232.68,79,11.37,11.37,0,0,0,229,86.16a15.49,15.49,0,0,0,.87,8.11,10.33,10.33,0,0,0,5.68,5.51,15,15,0,0,0,7.87.66,10.9,10.9,0,0,0,6.87-4,12.81,12.81,0,0,0,2.53-8A14.88,14.88,0,0,0,252,82.9Zm-5,7.91a7.33,7.33,0,0,1-1.45,3.43A5.23,5.23,0,0,1,242.2,96a7.49,7.49,0,0,1-4-.44,5.65,5.65,0,0,1-2.94-3.08,11,11,0,0,1-.67-5.09,8.09,8.09,0,0,1,1.7-4.65,5.67,5.67,0,0,1,4.08-2,6.13,6.13,0,0,1,4.47,1.32,6.39,6.39,0,0,1,2,3.72,14.18,14.18,0,0,1,0,5Z"></path></g><path id="Trazado_546" data-name="Trazado 546" class="cls-4" d="M17.13,103.76h33v33h-33Z"></path><path id="Trazado_547" data-name="Trazado 547" class="cls-5" d="M53.52,103.76h33v33h-33v-33Z"></path><g id="Grupo_339" data-name="Grupo 339"><path id="Trazado_548" data-name="Trazado 548" class="cls-3" d="M97.05,136.65l12-31.17h4.44l12.76,31.17h-4.7l-3.64-9.44h-13l-3.42,9.44Zm9-12.8h10.57l-3.26-8.63c-1-2.62-1.72-4.78-2.21-6.46a38.71,38.71,0,0,1-1.68,5.95Z"></path><path id="Trazado_549" data-name="Trazado 549" class="cls-3" d="M127,136.65v-3.1l14.38-16.5q-2.44.12-4.32.12h-9.2v-3.1h18.45v2.53L134.1,130.94l-2.36,2.61c1.71-.13,3.32-.19,4.82-.19H147v3.29Z"></path><path id="Trazado_550" data-name="Trazado 550" class="cls-3" d="M165.61,136.65v-3.31a8.27,8.27,0,0,1-7.17,3.83,9,9,0,0,1-3.73-.77,6.13,6.13,0,0,1-2.58-1.92,7.34,7.34,0,0,1-1.18-2.84,20.38,20.38,0,0,1-.23-3.58v-14h3.83V126.6a22.78,22.78,0,0,0,.24,4,4,4,0,0,0,1.53,2.37,4.73,4.73,0,0,0,2.89.86,6.23,6.23,0,0,0,3.23-.88,4.91,4.91,0,0,0,2.14-2.4,12.25,12.25,0,0,0,.63-4.41V114.07H169v22.58Z"></path><path id="Trazado_551" data-name="Trazado 551" class="cls-3" d="M175,136.66V114.07h3.44v3.43a9.34,9.34,0,0,1,2.44-3.17,4.29,4.29,0,0,1,2.45-.77,7.57,7.57,0,0,1,3.94,1.24l-1.32,3.55a5.51,5.51,0,0,0-2.81-.83,3.65,3.65,0,0,0-2.25.75,4.08,4.08,0,0,0-1.43,2.1,15,15,0,0,0-.64,4.46v11.83Z"></path><path id="Trazado_552" data-name="Trazado 552" class="cls-3" d="M205,129.39l4,.49a9.62,9.62,0,0,1-3.47,5.38,11.74,11.74,0,0,1-14.32-1.14,11.94,11.94,0,0,1-2.9-8.56q0-5.69,2.93-8.84a10,10,0,0,1,7.62-3.15,9.66,9.66,0,0,1,7.4,3.09,12.23,12.23,0,0,1,2.87,8.67c0,.23,0,.57,0,1H192.22a8.64,8.64,0,0,0,2.1,5.7,6.27,6.27,0,0,0,4.72,2,5.79,5.79,0,0,0,3.59-1.11A7.33,7.33,0,0,0,205,129.39Zm-12.57-6.19H205a7.65,7.65,0,0,0-1.44-4.27,5.88,5.88,0,0,0-4.75-2.21,6.12,6.12,0,0,0-4.43,1.76,7.06,7.06,0,0,0-2,4.72Z"></path></g></g></svg> 