<?xml version="1.0" encoding="UTF-8"?> <svg xmlns="http://www.w3.org/2000/svg" id="Capa_1" data-name="Capa 1" viewBox="0 0 300 200"><defs><style>.cls-1{fill:#f80000;}</style></defs><path id="Trazado_606" data-name="Trazado 606" class="cls-1" d="M126.82,109.68h16.6l-8.78-14.16-16.12,25.59h-7.34l19.6-30.68a4.68,4.68,0,0,1,6.52-1.15,4.54,4.54,0,0,1,1.12,1.11l19.69,30.76h-7.35l-3.47-5.73H130.47l-3.65-5.74M203,115.37V88.69h-6.26V118a3.1,3.1,0,0,0,.92,2.13,3.26,3.26,0,0,0,2.26,1h28.37l3.69-5.69H203m-103-4.79a11,11,0,1,0,.23-21.9H72.76v32.38H79V94.43H99.57a5.24,5.24,0,1,1,0,10.47H82l18.6,16.21h9L97.18,110.6H100M34.48,121.11H53.29a16.19,16.19,0,0,0,0-32.37H34.48a16.19,16.19,0,0,0-.29,32.37h.29m18.38-5.69h-18a10.48,10.48,0,0,1,0-21h18a10.48,10.48,0,0,1,0,21m118.24,5.69h19.2l3.65-5.69H171.53a10.48,10.48,0,0,1,0-21h18.26l3.69-5.73H171.1a16.19,16.19,0,1,0-.29,32.37h.29m76.13-5.69a10.51,10.51,0,0,1-10.08-7.61h26.6l3.65-5.69H237.11a10.45,10.45,0,0,1,10.08-7.6h18.25l3.65-5.74H246.76a16.19,16.19,0,0,0,0,32.37H266l3.65-5.69H247.23m25.29-23.29A2.87,2.87,0,1,1,275.39,95h0a2.88,2.88,0,0,1-2.87-2.87h0m2.87,3.65A3.6,3.6,0,0,0,279,92.23v0a3.63,3.63,0,1,0-3.65,3.61h0M275,90a5.66,5.66,0,0,1,1.09.09,1.14,1.14,0,0,1,.78,1.13l0,.34a1,1,0,0,1-.52.7l-.18.09,1,1.69h-.91l-.83-1.56h-.56v1.56H274V90h1m.26,1.86.65-.25.13-.35-.3-.52a1.86,1.86,0,0,0-.74-.09h-.22v1.17h.48"></path></svg> 